<?xml version="1.0" encoding="utf-8"?>
<!-- Generator: Adobe Illustrator 19.1.0, SVG Export Plug-In . SVG Version: 6.00 Build 0)  -->
<svg version="1.1" id="Layer_1" xmlns="http://www.w3.org/2000/svg" xmlns:xlink="http://www.w3.org/1999/xlink" x="0px" y="0px"
	 viewBox="0 0 233 79" style="enable-background:new 0 0 233 79;" xml:space="preserve">
<style type="text/css">
	.st0{fill:#002E6E;}
	.st1{fill:#0076A2;}
</style>
<g>
	<g>
		<g>
			<path class="st0" d="M69.8,47.3c0-17.1-14.2-31-31.7-31c-0.4,0-0.8,0-1.2,0L34,22.6l10.8,8.1l6.2,4.6l-7.6-1l-17.1-2.3l-0.2,0
				c0.7,4.4,1.8,9.4,3.8,14.2c0.7,1.4,1.4,2.8,2.1,4.1C38,62.2,44,70.5,49.5,75.1c2.4,2.1,5.8,3.9,8.7,3.9c1.1,0,2.1-0.2,3-0.8
				c4.5-2.7,3.9-11.1,3.5-14.1C67.9,59.3,69.8,53.5,69.8,47.3z M59,74.5c-0.8,0.5-2.4,0-4.1-0.9c2.1-1.3,4-2.8,5.8-4.5
				C60.5,71.6,60,73.9,59,74.5z"/>
			<path class="st0" d="M28,52.4c-0.9-1.7-1.7-3.4-2.6-5.2c-3.2-5.1-5.5-10.1-7.2-14.6l-1.8-0.2l-5.8-0.8C8,36.2,6.4,41.6,6.4,47.3
				c0,17.1,14.2,31,31.7,31c2.6,0,5.1-0.3,7.4-0.9C39.9,72.3,34,63.9,28,52.4z"/>
		</g>
		<g id="XMLID_1_">
			<path class="st1" d="M0,28.1l16.8,2.3c-1.7-4-0.7-16.1-0.7-16.1s0.9,17,12.1,33.5c-5.8-13.7-5.1-28.7-5.1-28.7l3.4,11l17.1,2.3
				l-12.1-9.1l6.2-13.6l-14.1,4.6L14.4,0l-2,20.7L0,28.1z"/>
		</g>
	</g>
	<g>
		<path class="st0" d="M88.4,47.8v9.4c-1.7,0-3.4,0-5,0V38h1.8l9.7,9.4v-9.4c1.7,0,3.3,0,5,0v19.1H98L88.4,47.8z"/>
		<path class="st0" d="M103.5,47.6c0-13.2,19.6-13.2,19.6,0C123,60.9,103.5,60.9,103.5,47.6z M118.1,47.6c0-6.9-9.6-6.9-9.6,0
			C108.5,54.6,118.1,54.6,118.1,47.6z"/>
		<path class="st0" d="M133.9,48.9h0.1l4.4-10.8h4.7v0.7l-8.1,18.6h-2.1l-8.2-18.6v-0.7h4.7L133.9,48.9z"/>
		<path class="st0" d="M155.4,54.8h-7.5l-1.1,2.4H142v-0.7l8.6-18.6h2.1l8.6,18.6v0.7h-4.8L155.4,54.8z M151.6,45.5l-2.1,5h4.3
			L151.6,45.5z"/>
		<path class="st0" d="M173.2,51.5c0-1.3-1.6-1.6-3.5-1.7c-4.1-0.3-6.9-1.7-6.9-5.9c-0.2-8.2,14.7-8.2,14.6,0c-1.7,0-3,0-4.6,0
			c0-2.5-5.1-2.3-5.3-0.1c-0.1,1.4,1.3,1.7,3,1.9c3.8,0.4,7.5,0.9,7.5,5.7c0,8-15.6,8.2-15.4-0.2c1.6,0,3.1,0,4.7,0
			C167.2,53.8,173.2,53.7,173.2,51.5z"/>
		<path class="st0" d="M180.3,47.6c0-13.2,19.6-13.2,19.6,0C199.9,60.9,180.3,60.9,180.3,47.6z M194.9,47.6c0-6.9-9.6-6.9-9.6,0
			C185.4,54.6,194.9,54.6,194.9,47.6z"/>
		<path class="st0" d="M208.6,51v6.2c-1.6,0-3.3,0-5,0V38.1c3.9,0,8,0,11.9,0c0,1.6,0,2.7,0,4.4h-6.9v4.2h6.1c0,1.6,0,2.7,0,4.4
			H208.6z"/>
		<path class="st0" d="M217.8,42.4c0-1.5,0-2.9,0-4.4H232c0,1.4,0,2.9,0,4.4h-4.7v14.7c-1.6,0-3.2,0-4.8,0V42.4H217.8z"/>
	</g>
</g>
</svg>
